<svg width="165" height="165" viewBox="0 0 165 165" fill="none" xmlns="http://www.w3.org/2000/svg">
<mask id="path-1-inside-1_128_49" fill="white">
<path d="M74.25 33C67.9552 33 62.0813 34.7572 57.0735 37.818C56.5559 35.0494 55.6125 32.3777 54.2767 29.898C60.5574 26.4223 67.6364 24.6457 74.814 24.7438C81.9916 24.842 89.0194 26.8114 95.2027 30.4576C101.386 34.1038 106.511 39.3004 110.07 45.5338C113.63 51.7672 115.502 58.8217 115.5 66H136.133C139.414 66.0022 142.559 67.3069 144.878 69.6275C147.197 71.948 148.5 75.0944 148.5 78.375V127.875C148.5 131.157 147.196 134.305 144.875 136.625C142.555 138.946 139.407 140.25 136.125 140.25H86.625C83.3429 140.25 80.1953 138.946 77.8746 136.625C75.5538 134.305 74.25 131.157 74.25 127.875V107.25C68.5112 107.257 62.8344 106.063 57.585 103.744C57.6922 100.939 57.75 97.9935 57.75 94.875V94.5862C62.601 97.3912 68.2358 99 74.25 99V78.375C74.25 75.0929 75.5538 71.9453 77.8746 69.6245C80.1953 67.3038 83.3429 66 86.625 66H107.25C107.25 57.2478 103.773 48.8542 97.5845 42.6655C91.3958 36.4768 83.0021 33 74.25 33ZM114.675 74.25C113.052 82.1747 109.138 89.4483 103.418 95.1682C97.6983 100.888 90.4247 104.802 82.5 106.425V127.875C82.5 128.969 82.9346 130.018 83.7082 130.792C84.4818 131.565 85.531 132 86.625 132H136.125C137.219 132 138.268 131.565 139.042 130.792C139.815 130.018 140.25 128.969 140.25 127.875V78.375C140.25 77.281 139.815 76.2318 139.042 75.4582C138.268 74.6846 137.219 74.25 136.125 74.25H114.675ZM106.21 74.25H86.625C85.531 74.25 84.4818 74.6846 83.7082 75.4582C82.9346 76.2318 82.5 77.281 82.5 78.375V97.9605C88.2075 96.4818 93.4156 93.5036 97.5846 89.3346C101.754 85.1656 104.732 79.9574 106.21 74.25ZM37.7932 17.5312C38.478 18.1302 38.9456 18.9387 39.1231 19.831C39.3007 20.7233 39.1783 21.6492 38.775 22.4647C38.7052 22.7061 38.6691 22.956 38.6677 23.2072C38.6677 23.727 38.7998 24.717 40.0455 25.9545C40.6478 26.5567 41.1098 26.9857 41.613 27.456C42.0255 27.8355 42.4628 28.2315 43.0155 28.776C44.088 29.799 45.2183 31.0035 46.233 32.5132C48.3368 35.673 49.5 39.6247 49.5 45.375C49.5 52.4122 46.893 58.41 42.8258 62.0895L43.3538 62.7C45.6638 65.538 47.0085 69.2175 47.85 72.8475C49.5 80.025 49.5 88.6545 49.5 94.6687V94.875C49.5 117.868 46.3733 130.911 42.933 138.369C41.2005 142.123 39.3608 144.515 37.7685 146.017C37.1212 146.638 36.4074 147.186 35.64 147.65C35.2886 147.862 34.9219 148.047 34.5427 148.203C34.5427 148.203 33.6105 148.5 33 148.5C32.3895 148.5 31.4572 148.203 31.4572 148.203C31.074 148.056 30.7065 147.871 30.36 147.65C29.5926 147.186 28.8788 146.638 28.2315 146.017C26.6392 144.507 24.7995 142.123 23.067 138.369C19.6267 130.911 16.5 117.868 16.5 94.875V94.6687C16.5 88.6462 16.5 80.025 18.15 72.8475C18.9915 69.2175 20.3362 65.538 22.6462 62.7C22.8112 62.4937 22.9928 62.2875 23.1743 62.0895C19.107 58.41 16.5 52.4122 16.5 45.375C16.5 42.6855 17.2178 39.4762 18.2078 36.5145C19.1978 33.5445 20.5837 30.4755 22.1842 28.0005C24.09 24.783 26.7713 22.0852 28.8503 20.2702C29.9901 19.2678 31.1796 18.3234 32.4142 17.4405L32.6618 17.2755L32.736 17.2177L32.7607 17.2012L32.7773 17.193C33.5337 16.6887 34.4356 16.4485 35.3427 16.5097C36.2498 16.5708 37.1113 16.93 37.7932 17.5312ZM33 57.75C36.1927 57.7417 41.25 54.2025 41.25 45.375C41.25 40.8127 40.3507 38.577 39.3607 37.092C38.7588 36.2246 38.0645 35.4252 37.29 34.7077L36.267 33.7507C35.5987 33.1237 34.815 32.3977 34.2045 31.7955C33.3022 30.9026 32.5276 29.8892 31.9028 28.7842C30.8526 29.8884 29.9284 31.1059 29.1473 32.4142C27.9923 34.188 26.8702 36.6217 26.037 39.1297C25.179 41.6872 24.75 43.9477 24.75 45.375C24.75 54.219 29.8238 57.75 33 57.75ZM29.04 67.914C27.8685 69.3412 26.895 71.6182 26.1855 74.7037C24.7665 80.8747 24.75 88.6297 24.75 94.875C24.75 117.257 27.8107 128.964 30.558 134.912C31.4655 136.867 32.3153 138.171 33 139.037C33.9747 137.764 34.7945 136.379 35.442 134.912C38.1892 128.964 41.25 117.257 41.25 94.875C41.25 88.6297 41.2335 80.8747 39.8062 74.7037C39.0967 71.6182 38.1233 69.3412 36.96 67.914C36.505 67.2974 35.9066 66.8009 35.2166 66.4674C34.5267 66.1339 33.7659 65.9735 33 66H32.9835C32.2203 65.9755 31.4625 66.1369 30.7756 66.4704C30.0886 66.8038 29.493 67.2992 29.04 67.914Z"/>
</mask>
<path d="M33 58.75H33.0165V56.75H33V58.75ZM74.25 33V31V33ZM57.0735 37.818L55.1076 38.1855L55.6408 41.0377L58.1165 39.5245L57.0735 37.818ZM54.2767 29.898L53.3083 28.1481L51.5782 29.1055L52.516 30.8464L54.2767 29.898ZM115.5 66L113.5 65.9995L113.5 68H115.5V66ZM136.133 66L136.135 64H136.133V66ZM148.5 78.375L146.5 78.375V78.375H148.5ZM86.625 140.25V142.25V140.25ZM74.25 127.875L72.25 127.875L74.25 127.875ZM74.25 107.25H76.25V105.247L74.2475 105.25L74.25 107.25ZM57.585 103.744L55.5865 103.667L55.5346 105.024L56.7768 105.573L57.585 103.744ZM57.75 94.5862L58.7511 92.8548L55.75 91.1195V94.5862H57.75ZM74.25 99V101H76.25V99H74.25ZM86.625 66L86.625 64L86.625 66ZM107.25 66V68H109.25V66H107.25ZM114.675 74.25V72.25H113.043L112.716 73.8488L114.675 74.25ZM82.5 106.425L82.0988 104.466L80.5 104.793V106.425H82.5ZM106.21 74.25L108.147 74.7516L108.795 72.25H106.21V74.25ZM82.5 97.9605H80.5V100.545L83.0016 99.8966L82.5 97.9605ZM37.7932 17.5312L36.4705 19.0314L36.4765 19.0366L37.7932 17.5312ZM38.775 22.4647L36.9823 21.5781L36.9033 21.7377L36.8538 21.9088L38.775 22.4647ZM38.6677 23.2072L36.6677 23.1968V23.2072H38.6677ZM40.0455 25.9545L41.4597 24.5403L41.455 24.5356L40.0455 25.9545ZM41.613 27.456L40.2475 28.9173L40.2532 28.9226L40.2589 28.9278L41.613 27.456ZM43.0155 28.776L41.612 30.2008L41.6234 30.2121L41.6351 30.2232L43.0155 28.776ZM46.233 32.5132L47.8978 31.4048L47.8929 31.3976L46.233 32.5132ZM42.8258 62.0895L41.484 60.6063L40.0336 61.9185L41.313 63.3978L42.8258 62.0895ZM43.3538 62.7L44.9049 61.4374L44.886 61.4143L44.8665 61.3917L43.3538 62.7ZM47.85 72.8475L49.7992 72.3994L49.7983 72.3958L47.85 72.8475ZM42.933 138.369L44.7489 139.207L44.7491 139.207L42.933 138.369ZM37.7685 146.017L36.3964 144.562L36.3901 144.568L36.3839 144.574L37.7685 146.017ZM35.64 147.65L36.6716 149.364L36.6759 149.361L35.64 147.65ZM34.5427 148.203L35.1498 150.109L35.2289 150.083L35.3057 150.052L34.5427 148.203ZM31.4572 148.203L30.7397 150.07L30.7944 150.091L30.8502 150.109L31.4572 148.203ZM30.36 147.65L31.4331 145.963L31.4147 145.951L31.3959 145.939L30.36 147.65ZM28.2315 146.017L29.6161 144.573L29.6076 144.565L28.2315 146.017ZM23.067 138.369L21.2509 139.207L21.2511 139.207L23.067 138.369ZM18.15 72.8475L16.2017 72.3958L16.2008 72.3994L18.15 72.8475ZM22.6462 62.7L24.1974 63.9625L24.2027 63.956L24.208 63.9494L22.6462 62.7ZM23.1743 62.0895L24.6486 63.4409L26.0089 61.9569L24.516 60.6063L23.1743 62.0895ZM18.2078 36.5145L20.1046 37.1485L20.1051 37.1469L18.2078 36.5145ZM22.1842 28.0005L23.8637 29.0865L23.885 29.0535L23.905 29.0197L22.1842 28.0005ZM28.8503 20.2702L30.1656 21.7769L30.171 21.7721L28.8503 20.2702ZM32.4142 17.4405L31.3049 15.7764L31.2776 15.7946L31.2509 15.8136L32.4142 17.4405ZM32.6618 17.2755L33.7711 18.9396L33.832 18.899L33.8897 18.8542L32.6618 17.2755ZM32.736 17.2177L31.6266 15.5536L31.5658 15.5941L31.5081 15.639L32.736 17.2177ZM32.7607 17.2012L31.8664 15.4123L31.755 15.468L31.6514 15.5371L32.7607 17.2012ZM32.7773 17.193L33.6716 18.9819L33.783 18.9262L33.8866 18.8571L32.7773 17.193ZM33 57.75L33 59.75L33.0052 59.75L33 57.75ZM39.3607 37.092L41.0248 35.9826L41.0145 35.967L41.0038 35.9517L39.3607 37.092ZM37.29 34.7077L35.9237 36.1683L35.9308 36.1749L37.29 34.7077ZM36.267 33.7507L34.8985 35.2092L34.9007 35.2113L36.267 33.7507ZM34.2045 31.7955L32.7977 33.2171L32.7999 33.2193L34.2045 31.7955ZM31.9028 28.7842L33.6437 27.7998L32.3145 25.4492L30.4535 27.4059L31.9028 28.7842ZM29.1473 32.4142L30.8232 33.5056L30.8445 33.473L30.8644 33.4395L29.1473 32.4142ZM26.037 39.1297L27.9331 39.7659L27.935 39.7603L26.037 39.1297ZM24.75 45.375H22.75H24.75ZM29.04 67.914L30.5859 69.1829L30.6191 69.1425L30.6501 69.1003L29.04 67.914ZM30.558 134.912L28.7423 135.751L28.7439 135.754L30.558 134.912ZM33 139.037L31.431 140.278L33.0253 142.294L34.5881 140.253L33 139.037ZM35.442 134.912L33.6263 134.074L33.6192 134.089L33.6123 134.105L35.442 134.912ZM39.8062 74.7037L37.8571 75.1519L37.8577 75.1544L39.8062 74.7037ZM36.96 67.914L35.3508 69.1016L35.3793 69.1403L35.4097 69.1775L36.96 67.914ZM33 66V68H33.0346L33.0691 67.9988L33 66ZM32.9835 66L32.9194 67.999L32.9514 68H32.9835V66ZM74.25 31C67.5774 31 61.3438 32.864 56.0305 36.1115L58.1165 39.5245C62.8187 36.6505 68.3331 35 74.25 35V31ZM59.0394 37.4504C58.4839 34.4788 57.4712 31.6111 56.0375 28.9495L52.516 30.8464C53.7537 33.1443 54.6279 35.62 55.1076 38.1855L59.0394 37.4504ZM55.2451 31.6479C61.2213 28.3407 67.9571 26.6502 74.7867 26.7436L74.8413 22.744C67.3157 22.6411 59.8935 24.5038 53.3083 28.1481L55.2451 31.6479ZM74.7867 26.7436C81.6163 26.837 88.3033 28.711 94.1868 32.1804L96.2185 28.7348C89.7354 24.9119 82.367 22.8469 74.8413 22.744L74.7867 26.7436ZM94.1868 32.1804C100.07 35.6498 104.947 40.5944 108.334 46.5256L111.807 44.542C108.075 38.0063 102.702 32.5578 96.2185 28.7348L94.1868 32.1804ZM108.334 46.5256C111.721 52.4568 113.502 59.1693 113.5 65.9995L117.5 66.0005C117.502 58.4742 115.54 51.0776 111.807 44.542L108.334 46.5256ZM115.5 68H136.133V64H115.5V68ZM136.132 68C138.882 68.0018 141.519 69.0957 143.464 71.0412L146.293 68.2137C143.599 65.5181 139.945 64.0025 136.135 64L136.132 68ZM143.464 71.0412C145.408 72.9867 146.5 75.6246 146.5 78.375L150.5 78.375C150.5 74.5642 148.987 70.9093 146.293 68.2137L143.464 71.0412ZM146.5 78.375V127.875H150.5V78.375H146.5ZM146.5 127.875C146.5 130.627 145.407 133.266 143.461 135.211L146.29 138.04C148.985 135.344 150.5 131.687 150.5 127.875H146.5ZM143.461 135.211C141.516 137.157 138.877 138.25 136.125 138.25V142.25C139.937 142.25 143.594 140.735 146.29 138.04L143.461 135.211ZM136.125 138.25H86.625V142.25H136.125V138.25ZM86.625 138.25C83.8734 138.25 81.2345 137.157 79.2888 135.211L76.4603 138.04C79.1562 140.735 82.8125 142.25 86.625 142.25L86.625 138.25ZM79.2888 135.211C77.3431 133.266 76.25 130.627 76.25 127.875L72.25 127.875C72.25 131.687 73.7645 135.344 76.4603 138.04L79.2888 135.211ZM76.25 127.875V107.25H72.25V127.875H76.25ZM74.2475 105.25C68.7878 105.257 63.3872 104.121 58.3932 101.914L56.7768 105.573C62.2815 108.005 68.2345 109.258 74.2525 109.25L74.2475 105.25ZM59.5835 103.82C59.6918 100.989 59.75 98.0183 59.75 94.875H55.75C55.75 97.9687 55.6927 100.888 55.5865 103.667L59.5835 103.82ZM59.75 94.875V94.5862H55.75V94.875H59.75ZM56.7489 96.3176C61.8957 99.2937 67.8746 101 74.25 101V97C68.5969 97 63.3063 95.4888 58.7511 92.8548L56.7489 96.3176ZM76.25 99V78.375H72.25V99H76.25ZM76.25 78.375C76.25 75.6234 77.3431 72.9844 79.2888 71.0387L76.4603 68.2103C73.7645 70.9062 72.25 74.5625 72.25 78.375H76.25ZM79.2888 71.0387C81.2345 69.0931 83.8734 68 86.625 68L86.625 64C82.8125 64 79.1562 65.5145 76.4603 68.2103L79.2888 71.0387ZM86.625 68H107.25V64H86.625V68ZM109.25 66C109.25 56.7174 105.563 47.815 98.9987 41.2512L96.1703 44.0797C101.984 49.8933 105.25 57.7783 105.25 66H109.25ZM98.9987 41.2512C92.435 34.6875 83.5326 31 74.25 31V35C82.4717 35 90.3567 38.266 96.1703 44.0797L98.9987 41.2512ZM112.716 73.8488C111.172 81.3897 107.447 88.3111 102.004 93.754L104.832 96.5824C110.829 90.5855 114.933 82.9596 116.634 74.6512L112.716 73.8488ZM102.004 93.754C96.5611 99.1968 89.6397 102.921 82.0988 104.466L82.9012 108.384C91.2096 106.683 98.8356 102.579 104.832 96.5824L102.004 93.754ZM80.5 106.425V127.875H84.5V106.425H80.5ZM80.5 127.875C80.5 129.499 81.1453 131.057 82.294 132.206L85.1224 129.378C84.7239 128.979 84.5 128.439 84.5 127.875H80.5ZM82.294 132.206C83.4426 133.355 85.0006 134 86.625 134V130C86.0614 130 85.5209 129.776 85.1224 129.378L82.294 132.206ZM86.625 134H136.125V130H86.625V134ZM136.125 134C137.749 134 139.307 133.355 140.456 132.206L137.628 129.378C137.229 129.776 136.689 130 136.125 130V134ZM140.456 132.206C141.605 131.057 142.25 129.499 142.25 127.875H138.25C138.25 128.439 138.026 128.979 137.628 129.378L140.456 132.206ZM142.25 127.875V78.375H138.25V127.875H142.25ZM142.25 78.375C142.25 76.7505 141.605 75.1926 140.456 74.044L137.628 76.8724C138.026 77.2709 138.25 77.8114 138.25 78.375H142.25ZM140.456 74.044C139.307 72.8953 137.749 72.25 136.125 72.25V76.25C136.689 76.25 137.229 76.4739 137.628 76.8724L140.456 74.044ZM136.125 72.25H114.675V76.25H136.125V72.25ZM106.21 72.25H86.625V76.25H106.21V72.25ZM86.625 72.25C85.0006 72.25 83.4426 72.8953 82.294 74.044L85.1224 76.8724C85.5209 76.4739 86.0614 76.25 86.625 76.25V72.25ZM82.294 74.044C81.1453 75.1926 80.5 76.7505 80.5 78.375H84.5C84.5 77.8114 84.7239 77.2709 85.1224 76.8724L82.294 74.044ZM80.5 78.375V97.9605H84.5V78.375H80.5ZM83.0016 99.8966C89.0544 98.3284 94.5776 95.1701 98.9988 90.7488L96.1704 87.9204C92.2536 91.8372 87.3606 94.6352 81.9984 96.0244L83.0016 99.8966ZM98.9988 90.7488C103.42 86.3276 106.578 80.8043 108.147 74.7516L104.274 73.7484C102.885 79.1105 100.087 84.0036 96.1704 87.9204L98.9988 90.7488ZM36.4765 19.0366C36.8293 19.3452 37.0701 19.7617 37.1616 20.2214L41.0847 19.4407C40.821 18.1158 40.1268 16.9152 39.11 16.0258L36.4765 19.0366ZM37.1616 20.2214C37.2531 20.681 37.19 21.158 36.9823 21.5781L40.5677 23.3513C41.1666 22.1405 41.3483 20.7656 41.0847 19.4407L37.1616 20.2214ZM36.8538 21.9088C36.7327 22.3275 36.6701 22.7609 36.6678 23.1968L40.6677 23.2177C40.6681 23.151 40.6776 23.0847 40.6962 23.0206L36.8538 21.9088ZM36.6677 23.2072C36.6677 24.2292 36.9912 25.7395 38.636 27.3734L41.455 24.5356C40.9998 24.0833 40.819 23.7485 40.7439 23.5626C40.6722 23.3851 40.6677 23.2727 40.6677 23.2072H36.6677ZM38.6313 27.3687C39.2611 27.9985 39.7472 28.4498 40.2475 28.9173L42.9785 25.9947C42.4723 25.5217 42.0344 25.115 41.4597 24.5403L38.6313 27.3687ZM40.2589 28.9278C40.6807 29.3159 41.089 29.6856 41.612 30.2008L44.419 27.3512C43.8365 26.7773 43.3703 26.3551 42.9671 25.9841L40.2589 28.9278ZM41.6351 30.2232C42.6477 31.1891 43.6678 32.282 44.5731 33.6289L47.8929 31.3976C46.7687 29.725 45.5283 28.4089 44.3959 27.3288L41.6351 30.2232ZM44.5682 33.6216C46.401 36.3744 47.5 39.9127 47.5 45.375H51.5C51.5 39.3367 50.2725 34.9715 47.8978 31.4048L44.5682 33.6216ZM47.5 45.375C47.5 51.9368 45.0699 57.3623 41.484 60.6063L44.1675 63.5726C48.7161 59.4577 51.5 52.8877 51.5 45.375H47.5ZM41.313 63.3978L41.841 64.0083L44.8665 61.3917L44.3385 60.7812L41.313 63.3978ZM41.8026 63.9625C43.8354 66.4599 45.0904 69.7996 45.9017 73.2991L49.7983 72.3958C48.9266 68.6354 47.4921 64.6161 44.9049 61.4374L41.8026 63.9625ZM45.9008 73.2956C47.4909 80.2122 47.5 88.6065 47.5 94.6687H51.5C51.5 88.7025 51.5091 79.8378 49.7992 72.3994L45.9008 73.2956ZM47.5 94.6687V94.875H51.5V94.6687H47.5ZM47.5 94.875C47.5 117.718 44.3887 130.439 41.1169 137.531L44.7491 139.207C48.3578 131.383 51.5 118.017 51.5 94.875H47.5ZM41.1171 137.531C39.4747 141.089 37.7751 143.261 36.3964 144.562L39.1406 147.472C40.9464 145.769 42.9263 143.156 44.7489 139.207L41.1171 137.531ZM36.3839 144.574C35.8426 145.093 35.2457 145.551 34.6041 145.939L36.6759 149.361C37.569 148.82 38.3997 148.183 39.1531 147.46L36.3839 144.574ZM34.6084 145.937C34.3431 146.097 34.0661 146.236 33.7798 146.354L35.3057 150.052C35.7776 149.857 36.2342 149.627 36.6716 149.364L34.6084 145.937ZM34.5427 148.203C33.9357 146.297 33.9358 146.297 33.936 146.297C33.9361 146.297 33.9362 146.297 33.9363 146.297C33.9365 146.297 33.9367 146.297 33.9369 146.297C33.9373 146.297 33.9376 146.297 33.9379 146.297C33.9384 146.297 33.9387 146.296 33.9388 146.296C33.9389 146.296 33.9383 146.297 33.9369 146.297C33.934 146.298 33.928 146.3 33.9192 146.302C33.9015 146.308 33.8728 146.316 33.8354 146.327C33.7597 146.349 33.6533 146.378 33.5336 146.407C33.4121 146.436 33.2902 146.461 33.1813 146.479C33.1276 146.488 33.0834 146.493 33.0489 146.497C33.0133 146.5 32.9979 146.5 33 146.5V150.5C33.5545 150.5 34.1324 150.377 34.467 150.296C34.6567 150.251 34.8215 150.206 34.9397 150.172C34.9992 150.155 35.0481 150.14 35.0838 150.129C35.1017 150.124 35.1163 150.119 35.1274 150.116C35.1329 150.114 35.1376 150.113 35.1414 150.111C35.1432 150.111 35.1449 150.11 35.1463 150.11C35.147 150.11 35.1476 150.109 35.1482 150.109C35.1485 150.109 35.1488 150.109 35.1491 150.109C35.1492 150.109 35.1494 150.109 35.1495 150.109C35.1496 150.109 35.1498 150.109 34.5427 148.203ZM33 146.5C33.0021 146.5 32.9867 146.5 32.9511 146.497C32.9166 146.493 32.8724 146.488 32.8187 146.479C32.7098 146.461 32.5879 146.436 32.4664 146.407C32.3467 146.378 32.2403 146.349 32.1646 146.327C32.1272 146.316 32.0985 146.308 32.0808 146.302C32.072 146.3 32.066 146.298 32.0631 146.297C32.0617 146.297 32.0611 146.296 32.0612 146.296C32.0613 146.296 32.0616 146.297 32.0621 146.297C32.0624 146.297 32.0627 146.297 32.0631 146.297C32.0633 146.297 32.0634 146.297 32.0637 146.297C32.0638 146.297 32.0639 146.297 32.064 146.297C32.0641 146.297 32.0643 146.297 31.4572 148.203C30.8502 150.109 30.8504 150.109 30.8505 150.109C30.8506 150.109 30.8508 150.109 30.8509 150.109C30.8512 150.109 30.8515 150.109 30.8518 150.109C30.8524 150.109 30.853 150.11 30.8537 150.11C30.8551 150.11 30.8568 150.111 30.8586 150.111C30.8624 150.113 30.8671 150.114 30.8726 150.116C30.8837 150.119 30.8983 150.124 30.9162 150.129C30.9519 150.14 31.0008 150.155 31.0603 150.172C31.1785 150.206 31.3433 150.251 31.533 150.296C31.8676 150.377 32.4455 150.5 33 150.5V146.5ZM32.1748 146.336C31.9158 146.237 31.6673 146.111 31.4331 145.963L29.2869 149.338C29.7456 149.63 30.2323 149.875 30.7397 150.07L32.1748 146.336ZM31.3959 145.939C30.7543 145.551 30.1574 145.093 29.6161 144.574L26.8469 147.46C27.6003 148.183 28.431 148.82 29.3241 149.361L31.3959 145.939ZM29.6076 144.565C28.2237 143.253 26.524 141.086 24.8829 137.531L21.2511 139.207C23.075 143.159 25.0548 145.761 26.8554 147.468L29.6076 144.565ZM24.8831 137.531C21.6113 130.439 18.5 117.718 18.5 94.875H14.5C14.5 118.017 17.6422 131.383 21.2509 139.207L24.8831 137.531ZM18.5 94.875V94.6687H14.5V94.875H18.5ZM18.5 94.6687C18.5 88.5983 18.5091 80.2122 20.0992 73.2956L16.2008 72.3994C14.4909 79.8378 14.5 88.6942 14.5 94.6687H18.5ZM20.0983 73.2991C20.9096 69.7996 22.1646 66.4599 24.1974 63.9625L21.0951 61.4374C18.5079 64.6161 17.0734 68.6354 16.2017 72.3958L20.0983 73.2991ZM24.208 63.9494C24.3347 63.791 24.4836 63.6209 24.6486 63.4409L21.6999 60.738C21.5019 60.9541 21.2878 61.1964 21.0845 61.4506L24.208 63.9494ZM24.516 60.6063C20.9301 57.3623 18.5 51.9368 18.5 45.375H14.5C14.5 52.8877 17.2839 59.4577 21.8325 63.5726L24.516 60.6063ZM18.5 45.375C18.5 42.9896 19.1476 40.0115 20.1046 37.1485L16.3109 35.8804C15.2879 38.941 14.5 42.3813 14.5 45.375H18.5ZM20.1051 37.1469C21.0547 34.2982 22.3743 31.3896 23.8637 29.0865L20.5048 26.9144C18.7932 29.5613 17.3408 32.7908 16.3104 35.882L20.1051 37.1469ZM23.905 29.0197C25.6575 26.0611 28.1631 23.525 30.1656 21.7769L27.5349 18.7636C25.3794 20.6454 22.5225 23.5049 20.4635 26.9812L23.905 29.0197ZM30.171 21.7721C31.2605 20.8139 32.3974 19.9112 33.5776 19.0673L31.2509 15.8136C29.9617 16.7355 28.7196 17.7217 27.5295 18.7684L30.171 21.7721ZM33.5236 19.1046L33.7711 18.9396L31.5524 15.6114L31.3049 15.7764L33.5236 19.1046ZM33.8897 18.8542L33.9639 18.7964L31.5081 15.639L31.4338 15.6968L33.8897 18.8542ZM33.8454 18.8819L33.8701 18.8654L31.6514 15.5371L31.6266 15.5536L33.8454 18.8819ZM33.6551 18.9901L33.6716 18.9819L31.8829 15.4041L31.8664 15.4123L33.6551 18.9901ZM33.8866 18.8571C34.2763 18.5974 34.7409 18.4736 35.2082 18.5051L35.4773 14.5142C34.1304 14.4234 32.7912 14.7801 31.6679 15.5288L33.8866 18.8571ZM35.2082 18.5051C35.6755 18.5366 36.1193 18.7216 36.4706 19.0314L39.1159 16.0311C38.1034 15.1383 36.8242 14.605 35.4773 14.5142L35.2082 18.5051ZM33.0052 59.75C37.6158 59.7381 43.25 54.9607 43.25 45.375H39.25C39.25 53.4443 34.7697 55.7454 32.9948 55.75L33.0052 59.75ZM43.25 45.375C43.25 40.5206 42.2846 37.8723 41.0248 35.9826L37.6966 38.2014C38.4169 39.2817 39.25 41.1049 39.25 45.375H43.25ZM41.0038 35.9517C40.3194 34.9654 39.5299 34.0564 38.6492 33.2405L35.9308 36.1749C36.5991 36.794 37.1983 37.4838 37.7177 38.2323L41.0038 35.9517ZM38.6563 33.2472L37.6333 32.2902L34.9007 35.2113L35.9237 36.1683L38.6563 33.2472ZM37.6355 32.2922C36.9503 31.6494 36.1961 30.9508 35.6091 30.3717L32.7999 33.2193C33.4339 33.8447 34.2472 34.5981 34.8985 35.2092L37.6355 32.2922ZM35.6113 30.3739C34.84 29.6106 34.1778 28.7443 33.6437 27.7998L30.1618 29.7687C30.8774 31.0341 31.7644 32.1945 32.7977 33.2171L35.6113 30.3739ZM30.4535 27.4059C29.3013 28.6175 28.2872 29.9533 27.4301 31.3889L30.8644 33.4395C31.5697 32.2584 32.404 31.1593 33.352 30.1625L30.4535 27.4059ZM27.4713 31.3229C26.2012 33.2733 25.0121 35.8712 24.139 38.4991L27.935 39.7603C28.7284 37.3722 29.7833 35.1026 30.8232 33.5056L27.4713 31.3229ZM24.1409 38.4936C23.2497 41.1499 22.75 43.6424 22.75 45.375H26.75C26.75 44.2531 27.1083 42.2245 27.9331 39.7659L24.1409 38.4936ZM22.75 45.375C22.75 54.977 28.4019 59.75 33 59.75V55.75C31.2456 55.75 26.75 53.4609 26.75 45.375H22.75ZM27.4941 66.6451C26.0394 68.4173 24.9758 71.0401 24.2364 74.2555L28.1346 75.1519C28.8142 72.1964 29.6976 70.2651 30.5859 69.1829L27.4941 66.6451ZM24.2364 74.2555C22.7567 80.6902 22.75 88.6867 22.75 94.875H26.75C26.75 88.5727 26.7763 81.0593 28.1346 75.1519L24.2364 74.2555ZM22.75 94.875C22.75 117.406 25.826 129.436 28.7423 135.751L32.3737 134.074C29.7955 128.491 26.75 117.108 26.75 94.875H22.75ZM28.7439 135.754C29.7095 137.835 30.6385 139.275 31.431 140.278L34.569 137.797C33.992 137.067 33.2215 135.9 32.3721 134.07L28.7439 135.754ZM34.5881 140.253C35.6593 138.854 36.5601 137.332 37.2717 135.72L33.6123 134.105C33.0289 135.427 32.2902 136.674 31.4119 137.822L34.5881 140.253ZM37.2577 135.751C40.174 129.436 43.25 117.406 43.25 94.875H39.25C39.25 117.108 36.2045 128.491 33.6263 134.074L37.2577 135.751ZM43.25 94.875C43.25 88.6871 43.2434 80.6891 41.7548 74.2531L37.8577 75.1544C39.2236 81.0603 39.25 88.5724 39.25 94.875H43.25ZM41.7554 74.2555C41.0158 71.0393 39.9527 68.4202 38.5103 66.6504L35.4097 69.1775C36.2938 70.2623 37.1777 72.1972 37.8571 75.1519L41.7554 74.2555ZM38.5692 66.7264C37.9213 65.8485 37.0693 65.1415 36.087 64.6667L34.3463 68.2681C34.7438 68.4603 35.0886 68.7463 35.3508 69.1016L38.5692 66.7264ZM36.087 64.6667C35.1046 64.1919 34.0213 63.9635 32.9309 64.0012L33.0691 67.9988C33.5104 67.9835 33.9487 68.076 34.3463 68.2681L36.087 64.6667ZM33 64H32.9835V68H33V64ZM33.0476 64.001C31.9604 63.9661 30.8809 64.1961 29.9023 64.6711L31.6488 68.2696C32.0442 68.0778 32.4802 67.9849 32.9194 67.999L33.0476 64.001ZM29.9023 64.6711C28.9236 65.1461 28.0751 65.8519 27.4299 66.7276L30.6501 69.1003C30.9108 68.7466 31.2535 68.4615 31.6488 68.2696L29.9023 64.6711Z" fill="white" mask="url(#path-1-inside-1_128_49)"/>
</svg>
