<svg width="165" height="165" viewBox="0 0 165 165" fill="none" xmlns="http://www.w3.org/2000/svg">
<path d="M137.5 48.125V47.125H138.5V48.125H137.5ZM150.25 47.125V48.125H151.25V47.125H150.25ZM14.75 48.125V47.125H13.75V48.125H14.75ZM27.5 20.625H137.5C141.281 20.625 144.519 21.9725 147.214 24.6675C149.909 27.3625 151.255 30.5983 151.25 34.375L27.5 20.625ZM26.5 47.125V48.125H27.5V47.125H26.5ZM109 130.625V143.375H56V130.625V129.625H55H27.5C23.9863 129.625 21.0019 128.385 18.4927 125.875C15.9836 123.366 14.7458 120.385 14.75 116.876V116.875V104.125H26.5V116.875V117.875H27.5H137.5H138.5V116.875V104.125H150.25V116.875C150.25 120.389 149.01 123.373 146.5 125.882C143.991 128.391 141.01 129.629 137.501 129.625H137.5H110H109V130.625ZM13.75 116.875V104.125V116.875ZM28.5 116.875H136.5H137.5V115.875V104.125L28.5 116.875ZM32.2929 74.9179L31.5858 75.625L32.2929 76.3321L49.4608 93.5L41.25 101.711L15.1642 75.625L41.25 49.5392L49.4608 57.75L32.2929 74.9179ZM132.707 76.3321L133.414 75.625L132.707 74.9179L115.539 57.75L123.75 49.5392L149.836 75.625L123.75 101.711L115.539 93.5L132.707 76.3321Z" stroke="white" stroke-width="2"/>
</svg>
