<svg width="165" height="165" viewBox="0 0 165 165" fill="none" xmlns="http://www.w3.org/2000/svg">
<path d="M129.905 30.2071L131.612 28.5H129.198H115.75C115.021 28.5 114.321 28.2103 113.805 27.6945C113.29 27.1788 113 26.4793 113 25.75C113 25.0207 113.29 24.3212 113.805 23.8055C114.321 23.2897 115.021 23 115.75 23H138.25C138.979 23 139.679 23.2897 140.195 23.8055C140.71 24.3212 141 25.0207 141 25.75V48.25C141 48.9793 140.71 49.6788 140.195 50.1945C139.679 50.7103 138.979 51 138.25 51C137.521 51 136.821 50.7103 136.305 50.1945C135.79 49.6788 135.5 48.9793 135.5 48.25V34.8025V32.388L133.793 34.0955L95.1978 72.698L95.197 72.6988C94.9416 72.9549 94.6381 73.1581 94.304 73.2967C93.9699 73.4353 93.6117 73.5067 93.25 73.5067C92.8883 73.5067 92.5301 73.4353 92.196 73.2967C91.8619 73.1581 91.5585 72.9549 91.303 72.6988L91.3022 72.698L71.4572 52.8455L70.7501 52.1381L70.0428 52.8455L35.1979 87.6979C35.1979 87.6979 35.1978 87.6979 35.1978 87.698C34.6812 88.2145 33.9806 88.5047 33.25 88.5047C32.5194 88.5047 31.8187 88.2145 31.3021 87.6979C30.7855 87.1813 30.4953 86.4806 30.4953 85.75C30.4953 85.0194 30.7855 84.3187 31.3021 83.8021L68.8021 46.3021L68.803 46.3012C69.0585 46.0451 69.3619 45.8419 69.696 45.7033C70.0301 45.5647 70.3883 45.4933 70.75 45.4933C71.1117 45.4933 71.4699 45.5647 71.804 45.7033C72.1381 45.8419 72.4416 46.0451 72.697 46.3012L72.6978 46.302L92.5428 66.1545L93.2499 66.8619L93.9571 66.1546L129.905 30.2071ZM121.305 76.3055C121.821 75.7897 122.521 75.5 123.25 75.5C123.979 75.5 124.679 75.7897 125.195 76.3055C125.71 76.8212 126 77.5207 126 78.25V138.25C126 138.979 125.71 139.679 125.195 140.195C124.679 140.71 123.979 141 123.25 141C122.521 141 121.821 140.71 121.305 140.195C120.79 139.679 120.5 138.979 120.5 138.25V78.25C120.5 77.5206 120.79 76.8212 121.305 76.3055ZM61.3055 91.3055C61.8212 90.7897 62.5207 90.5 63.25 90.5C63.9794 90.5 64.6788 90.7897 65.1945 91.3055C65.7103 91.8212 66 92.5207 66 93.25V138.25C66 138.979 65.7103 139.679 65.1945 140.195C64.6788 140.71 63.9794 141 63.25 141C62.5207 141 61.8212 140.71 61.3055 140.195C60.7897 139.679 60.5 138.979 60.5 138.25V93.25C60.5 92.5207 60.7897 91.8212 61.3055 91.3055ZM90.5 108.25C90.5 107.521 90.7897 106.821 91.3055 106.305C91.8212 105.79 92.5207 105.5 93.25 105.5C93.9794 105.5 94.6788 105.79 95.1945 106.305C95.7103 106.821 96 107.521 96 108.25V138.25C96 138.979 95.7103 139.679 95.1945 140.195C94.6788 140.71 93.9794 141 93.25 141C92.5207 141 91.8212 140.71 91.3055 140.195C90.7897 139.679 90.5 138.979 90.5 138.25V108.25ZM30.5 115.75C30.5 115.021 30.7897 114.321 31.3055 113.805C31.8212 113.29 32.5207 113 33.25 113C33.9794 113 34.6788 113.29 35.1945 113.805C35.7103 114.321 36 115.021 36 115.75V138.25C36 138.979 35.7103 139.679 35.1945 140.195C34.6788 140.71 33.9794 141 33.25 141C32.5207 141 31.8212 140.71 31.3055 140.195C30.7897 139.679 30.5 138.979 30.5 138.25V115.75Z" stroke="white" stroke-width="2"/>
</svg>
